<?xml version="1.0" encoding="UTF-8" standalone="no"?>
<svg
   width="35.776218mm"
   height="12.768738mm"
   viewBox="0 0 35.776218 12.768738"
   version="1.1"
   id="svg5"
   inkscape:version="1.1.1 (3bf5ae0d25, 2021-09-20)"
   sodipodi:docname="numbers.svg"
   xmlns:inkscape="http://www.inkscape.org/namespaces/inkscape"
   xmlns:sodipodi="http://sodipodi.sourceforge.net/DTD/sodipodi-0.dtd"
   xmlns="http://www.w3.org/2000/svg"
   xmlns:svg="http://www.w3.org/2000/svg">
  <sodipodi:namedview
     id="namedview7"
     pagecolor="#505050"
     bordercolor="#eeeeee"
     borderopacity="1"
     inkscape:pageshadow="0"
     inkscape:pageopacity="0"
     inkscape:pagecheckerboard="0"
     inkscape:document-units="mm"
     showgrid="false"
     inkscape:snap-nodes="false"
     inkscape:snap-others="true"
     inkscape:zoom="11.313709"
     inkscape:cx="117.95424"
     inkscape:cy="39.907337"
     inkscape:window-width="1920"
     inkscape:window-height="1016"
     inkscape:window-x="0"
     inkscape:window-y="0"
     inkscape:window-maximized="1"
     inkscape:current-layer="layer3"
     inkscape:snap-center="true" />
  <defs
     id="defs2" />
  <g
     inkscape:groupmode="layer"
     id="layer3"
     inkscape:label="Layer 2"
     transform="translate(-29.086251,-7.9878846)">
    <text
       xml:space="preserve"
       style="font-size:3.52777px;line-height:1.25;font-family:sans-serif;fill:#ffffff;stroke-width:0.264583"
       x="61.221359"
       y="14.195136"
       id="text26518"><tspan
         sodipodi:role="line"
         id="tspan26516"
         style="fill:#ffffff;stroke-width:0.264583"
         x="61.221359"
         y="14.195136" /></text>
    <path
       d="m 53.646033,14.814164 h 0.590727 v -0.11168 h -0.216012 v -0.966911 h -0.102863 c -0.05878,0.03527 -0.127844,0.06025 -0.223359,0.07788 v 0.08523 h 0.191031 v 0.8038 h -0.239524 z"
       id="path347"
       style="font-size:1.46947px;line-height:1.25;fill:#1fb200;fill-opacity:1;stroke-width:0.110209" />
    <path
       d="m 54.740786,14.833267 c 0.204256,0 0.335039,-0.186622 0.335039,-0.561337 0,-0.373246 -0.130783,-0.55546 -0.335039,-0.55546 -0.205726,0 -0.336509,0.180745 -0.336509,0.55546 0,0.374715 0.130783,0.561337 0.336509,0.561337 z m 0,-0.107271 c -0.123436,0 -0.205726,-0.136661 -0.205726,-0.454066 0,-0.314467 0.08229,-0.448189 0.205726,-0.448189 0.121966,0 0.204256,0.133722 0.204256,0.448189 0,0.317405 -0.08229,0.454066 -0.204256,0.454066 z"
       id="path344"
       style="font-size:1.46947px;line-height:1.25;fill:#1fb200;fill-opacity:1;stroke-width:0.110209" />
    <path
       d="m 55.27714,14.814164 h 0.590727 v -0.11168 h -0.216012 v -0.966911 h -0.102863 c -0.05878,0.03527 -0.127844,0.06025 -0.223359,0.07788 v 0.08523 h 0.191031 v 0.8038 H 55.27714 Z"
       id="path341"
       style="font-size:1.46947px;line-height:1.25;fill:#1fb200;fill-opacity:1;stroke-width:0.110209" />
    <path
       d="m 56.371893,14.833267 c 0.204256,0 0.335039,-0.186622 0.335039,-0.561337 0,-0.373246 -0.130783,-0.55546 -0.335039,-0.55546 -0.205726,0 -0.336509,0.180745 -0.336509,0.55546 0,0.374715 0.130783,0.561337 0.336509,0.561337 z m 0,-0.107271 c -0.123435,0 -0.205726,-0.136661 -0.205726,-0.454066 0,-0.314467 0.08229,-0.448189 0.205726,-0.448189 0.121966,0 0.204256,0.133722 0.204256,0.448189 0,0.317405 -0.08229,0.454066 -0.204256,0.454066 z"
       id="path338"
       style="font-size:1.46947px;line-height:1.25;fill:#1fb200;fill-opacity:1;stroke-width:0.110209" />
    <path
       d="m 56.908247,14.814164 h 0.590727 v -0.11168 h -0.216012 v -0.966911 h -0.102863 c -0.05878,0.03527 -0.127844,0.06025 -0.223359,0.07788 v 0.08523 h 0.191031 v 0.8038 h -0.239524 z"
       id="path335"
       style="font-size:1.46947px;line-height:1.25;fill:#1fb200;fill-opacity:1;stroke-width:0.110209" />
    <path
       d="m 58.003,14.833267 c 0.204256,0 0.335039,-0.186622 0.335039,-0.561337 0,-0.373246 -0.130783,-0.55546 -0.335039,-0.55546 -0.205726,0 -0.336509,0.180745 -0.336509,0.55546 0,0.374715 0.130783,0.561337 0.336509,0.561337 z m 0,-0.107271 c -0.123436,0 -0.205726,-0.136661 -0.205726,-0.454066 0,-0.314467 0.08229,-0.448189 0.205726,-0.448189 0.121966,0 0.204256,0.133722 0.204256,0.448189 0,0.317405 -0.08229,0.454066 -0.204256,0.454066 z"
       id="path332"
       style="font-size:1.46947px;line-height:1.25;fill:#1fb200;fill-opacity:1;stroke-width:0.110209" />
    <path
       d="m 58.539354,14.814164 h 0.590727 v -0.11168 h -0.216012 v -0.966911 h -0.102863 c -0.05878,0.03527 -0.127844,0.06025 -0.223359,0.07788 v 0.08523 h 0.191031 v 0.8038 h -0.239524 z"
       id="path329"
       style="font-size:1.46947px;line-height:1.25;fill:#1fb200;fill-opacity:1;stroke-width:0.110209" />
    <path
       d="m 59.634107,14.833267 c 0.204256,0 0.335039,-0.186622 0.335039,-0.561337 0,-0.373246 -0.130783,-0.55546 -0.335039,-0.55546 -0.205726,0 -0.336509,0.180745 -0.336509,0.55546 0,0.374715 0.130783,0.561337 0.336509,0.561337 z m 0,-0.107271 c -0.123436,0 -0.205726,-0.136661 -0.205726,-0.454066 0,-0.314467 0.08229,-0.448189 0.205726,-0.448189 0.121966,0 0.204256,0.133722 0.204256,0.448189 0,0.317405 -0.08229,0.454066 -0.204256,0.454066 z"
       id="path326"
       style="font-size:1.46947px;line-height:1.25;fill:#1fb200;fill-opacity:1;stroke-width:0.110209" />
    <path
       d="m 60.44966,14.833267 c 0.204257,0 0.33504,-0.186622 0.33504,-0.561337 0,-0.373246 -0.130783,-0.55546 -0.33504,-0.55546 -0.205725,0 -0.336508,0.180745 -0.336508,0.55546 0,0.374715 0.130783,0.561337 0.336508,0.561337 z m 0,-0.107271 c -0.123435,0 -0.205725,-0.136661 -0.205725,-0.454066 0,-0.314467 0.08229,-0.448189 0.205725,-0.448189 0.121966,0 0.204257,0.133722 0.204257,0.448189 0,0.317405 -0.08229,0.454066 -0.204257,0.454066 z"
       id="path323"
       style="font-size:1.46947px;line-height:1.25;fill:#1fb200;fill-opacity:1;stroke-width:0.110209" />
    <path
       d="m 60.986015,14.814164 h 0.590727 v -0.11168 H 61.36073 v -0.966911 h -0.102863 c -0.05878,0.03527 -0.127844,0.06025 -0.22336,0.07788 v 0.08523 h 0.191031 v 0.8038 h -0.239523 z"
       id="path320"
       style="font-size:1.46947px;line-height:1.25;fill:#1fb200;fill-opacity:1;stroke-width:0.110209" />
    <path
       d="m 62.080767,14.833267 c 0.204257,0 0.335039,-0.186622 0.335039,-0.561337 0,-0.373246 -0.130782,-0.55546 -0.335039,-0.55546 -0.205726,0 -0.336508,0.180745 -0.336508,0.55546 0,0.374715 0.130782,0.561337 0.336508,0.561337 z m 0,-0.107271 c -0.123435,0 -0.205726,-0.136661 -0.205726,-0.454066 0,-0.314467 0.08229,-0.448189 0.205726,-0.448189 0.121966,0 0.204257,0.133722 0.204257,0.448189 0,0.317405 -0.08229,0.454066 -0.204257,0.454066 z"
       id="path317"
       style="font-size:1.46947px;line-height:1.25;fill:#1fb200;fill-opacity:1;stroke-width:0.110209" />
    <path
       d="m 62.896321,14.833267 c 0.204256,0 0.335039,-0.186622 0.335039,-0.561337 0,-0.373246 -0.130783,-0.55546 -0.335039,-0.55546 -0.205726,0 -0.336509,0.180745 -0.336509,0.55546 0,0.374715 0.130783,0.561337 0.336509,0.561337 z m 0,-0.107271 c -0.123436,0 -0.205726,-0.136661 -0.205726,-0.454066 0,-0.314467 0.08229,-0.448189 0.205726,-0.448189 0.121966,0 0.204256,0.133722 0.204256,0.448189 0,0.317405 -0.08229,0.454066 -0.204256,0.454066 z"
       id="path314"
       style="font-size:1.46947px;line-height:1.25;fill:#1fb200;fill-opacity:1;stroke-width:0.110209" />
    <path
       d="m 63.432675,14.814164 h 0.590727 v -0.11168 H 63.80739 v -0.966911 h -0.102863 c -0.05878,0.03527 -0.127844,0.06025 -0.223359,0.07788 v 0.08523 h 0.191031 v 0.8038 h -0.239524 z"
       id="path311"
       style="font-size:1.46947px;line-height:1.25;fill:#1fb200;fill-opacity:1;stroke-width:0.110209" />
    <path
       d="m 64.248229,14.814164 h 0.590727 v -0.11168 h -0.216012 v -0.966911 h -0.102863 c -0.05878,0.03527 -0.127844,0.06025 -0.22336,0.07788 v 0.08523 h 0.191032 v 0.8038 h -0.239524 z"
       id="path308"
       style="font-size:1.46947px;line-height:1.25;fill:#1fb200;fill-opacity:1;stroke-width:0.110209" />
    <path
       d="m 53.646033,16.651002 h 0.590727 v -0.11168 h -0.216012 v -0.966911 h -0.102863 c -0.05878,0.03527 -0.127844,0.06025 -0.223359,0.07788 v 0.08523 h 0.191031 v 0.8038 h -0.239524 z"
       id="path305"
       style="font-size:1.46947px;line-height:1.25;fill:#1fb200;fill-opacity:1;stroke-width:0.110209" />
    <path
       d="m 54.740786,16.670105 c 0.204256,0 0.335039,-0.186623 0.335039,-0.561338 0,-0.373245 -0.130783,-0.555459 -0.335039,-0.555459 -0.205726,0 -0.336509,0.180744 -0.336509,0.555459 0,0.374715 0.130783,0.561338 0.336509,0.561338 z m 0,-0.107272 c -0.123436,0 -0.205726,-0.13666 -0.205726,-0.454066 0,-0.314466 0.08229,-0.448188 0.205726,-0.448188 0.121966,0 0.204256,0.133722 0.204256,0.448188 0,0.317406 -0.08229,0.454066 -0.204256,0.454066 z"
       id="path302"
       style="font-size:1.46947px;line-height:1.25;fill:#1fb200;fill-opacity:1;stroke-width:0.110209" />
    <path
       d="m 55.556339,16.670105 c 0.204257,0 0.33504,-0.186623 0.33504,-0.561338 0,-0.373245 -0.130783,-0.555459 -0.33504,-0.555459 -0.205725,0 -0.336508,0.180744 -0.336508,0.555459 0,0.374715 0.130783,0.561338 0.336508,0.561338 z m 0,-0.107272 c -0.123435,0 -0.205725,-0.13666 -0.205725,-0.454066 0,-0.314466 0.08229,-0.448188 0.205725,-0.448188 0.121966,0 0.204257,0.133722 0.204257,0.448188 0,0.317406 -0.08229,0.454066 -0.204257,0.454066 z"
       id="path299"
       style="font-size:1.46947px;line-height:1.25;fill:#1fb200;fill-opacity:1;stroke-width:0.110209" />
    <path
       d="m 56.092694,16.651002 h 0.590727 v -0.11168 h -0.216012 v -0.966911 h -0.102863 c -0.05878,0.03527 -0.127844,0.06025 -0.22336,0.07788 v 0.08523 h 0.191031 v 0.8038 h -0.239523 z"
       id="path296"
       style="font-size:1.46947px;line-height:1.25;fill:#1fb200;fill-opacity:1;stroke-width:0.110209" />
    <path
       d="m 57.187446,16.670105 c 0.204257,0 0.33504,-0.186623 0.33504,-0.561338 0,-0.373245 -0.130783,-0.555459 -0.33504,-0.555459 -0.205725,0 -0.336508,0.180744 -0.336508,0.555459 0,0.374715 0.130783,0.561338 0.336508,0.561338 z m 0,-0.107272 c -0.123435,0 -0.205725,-0.13666 -0.205725,-0.454066 0,-0.314466 0.08229,-0.448188 0.205725,-0.448188 0.121966,0 0.204257,0.133722 0.204257,0.448188 0,0.317406 -0.08229,0.454066 -0.204257,0.454066 z"
       id="path293"
       style="font-size:1.46947px;line-height:1.25;fill:#1fb200;fill-opacity:1;stroke-width:0.110209" />
    <path
       d="m 57.723801,16.651002 h 0.590727 v -0.11168 h -0.216013 v -0.966911 h -0.102862 c -0.05878,0.03527 -0.127844,0.06025 -0.22336,0.07788 v 0.08523 h 0.191031 v 0.8038 h -0.239523 z"
       id="path290"
       style="font-size:1.46947px;line-height:1.25;fill:#1fb200;fill-opacity:1;stroke-width:0.110209" />
    <path
       d="m 58.818554,16.670105 c 0.204256,0 0.335039,-0.186623 0.335039,-0.561338 0,-0.373245 -0.130783,-0.555459 -0.335039,-0.555459 -0.205726,0 -0.336509,0.180744 -0.336509,0.555459 0,0.374715 0.130783,0.561338 0.336509,0.561338 z m 0,-0.107272 c -0.123436,0 -0.205726,-0.13666 -0.205726,-0.454066 0,-0.314466 0.08229,-0.448188 0.205726,-0.448188 0.121966,0 0.204256,0.133722 0.204256,0.448188 0,0.317406 -0.08229,0.454066 -0.204256,0.454066 z"
       id="path287"
       style="font-size:1.46947px;line-height:1.25;fill:#1fb200;fill-opacity:1;stroke-width:0.110209" />
    <path
       d="m 59.634107,16.670105 c 0.204256,0 0.335039,-0.186623 0.335039,-0.561338 0,-0.373245 -0.130783,-0.555459 -0.335039,-0.555459 -0.205726,0 -0.336509,0.180744 -0.336509,0.555459 0,0.374715 0.130783,0.561338 0.336509,0.561338 z m 0,-0.107272 c -0.123436,0 -0.205726,-0.13666 -0.205726,-0.454066 0,-0.314466 0.08229,-0.448188 0.205726,-0.448188 0.121966,0 0.204256,0.133722 0.204256,0.448188 0,0.317406 -0.08229,0.454066 -0.204256,0.454066 z"
       id="path284"
       style="font-size:1.46947px;line-height:1.25;fill:#1fb200;fill-opacity:1;stroke-width:0.110209" />
    <path
       d="m 60.170461,16.651002 h 0.590727 v -0.11168 h -0.216012 v -0.966911 h -0.102863 c -0.05878,0.03527 -0.127844,0.06025 -0.223359,0.07788 v 0.08523 h 0.191031 v 0.8038 h -0.239524 z"
       id="path281"
       style="font-size:1.46947px;line-height:1.25;fill:#1fb200;fill-opacity:1;stroke-width:0.110209" />
    <path
       d="m 61.265214,16.670105 c 0.204256,0 0.335039,-0.186623 0.335039,-0.561338 0,-0.373245 -0.130783,-0.555459 -0.335039,-0.555459 -0.205726,0 -0.336509,0.180744 -0.336509,0.555459 0,0.374715 0.130783,0.561338 0.336509,0.561338 z m 0,-0.107272 c -0.123435,0 -0.205726,-0.13666 -0.205726,-0.454066 0,-0.314466 0.08229,-0.448188 0.205726,-0.448188 0.121966,0 0.204256,0.133722 0.204256,0.448188 0,0.317406 -0.08229,0.454066 -0.204256,0.454066 z"
       id="path278"
       style="font-size:1.46947px;line-height:1.25;fill:#1fb200;fill-opacity:1;stroke-width:0.110209" />
    <path
       d="m 61.801568,16.651002 h 0.590727 v -0.11168 H 62.176283 V 15.572411 H 62.07342 c -0.05878,0.03527 -0.127844,0.06025 -0.22336,0.07788 v 0.08523 h 0.191032 v 0.8038 h -0.239524 z"
       id="path275"
       style="font-size:1.46947px;line-height:1.25;fill:#1fb200;fill-opacity:1;stroke-width:0.110209" />
    <path
       d="m 62.896321,16.670105 c 0.204256,0 0.335039,-0.186623 0.335039,-0.561338 0,-0.373245 -0.130783,-0.555459 -0.335039,-0.555459 -0.205726,0 -0.336509,0.180744 -0.336509,0.555459 0,0.374715 0.130783,0.561338 0.336509,0.561338 z m 0,-0.107272 c -0.123436,0 -0.205726,-0.13666 -0.205726,-0.454066 0,-0.314466 0.08229,-0.448188 0.205726,-0.448188 0.121966,0 0.204256,0.133722 0.204256,0.448188 0,0.317406 -0.08229,0.454066 -0.204256,0.454066 z"
       id="path272"
       style="font-size:1.46947px;line-height:1.25;fill:#1fb200;fill-opacity:1;stroke-width:0.110209" />
    <path
       d="m 63.432675,16.651002 h 0.590727 v -0.11168 H 63.80739 v -0.966911 h -0.102863 c -0.05878,0.03527 -0.127844,0.06025 -0.223359,0.07788 v 0.08523 h 0.191031 v 0.8038 h -0.239524 z"
       id="path269"
       style="font-size:1.46947px;line-height:1.25;fill:#1fb200;fill-opacity:1;stroke-width:0.110209" />
    <path
       d="m 64.527428,16.670105 c 0.204257,0 0.335039,-0.186623 0.335039,-0.561338 0,-0.373245 -0.130782,-0.555459 -0.335039,-0.555459 -0.205726,0 -0.336508,0.180744 -0.336508,0.555459 0,0.374715 0.130782,0.561338 0.336508,0.561338 z m 0,-0.107272 c -0.123435,0 -0.205726,-0.13666 -0.205726,-0.454066 0,-0.314466 0.08229,-0.448188 0.205726,-0.448188 0.121966,0 0.204257,0.133722 0.204257,0.448188 0,0.317406 -0.08229,0.454066 -0.204257,0.454066 z"
       id="path266"
       style="font-size:1.46947px;line-height:1.25;fill:#1fb200;fill-opacity:1;stroke-width:0.110209" />
    <path
       d="m 53.925232,18.506942 c 0.204257,0 0.33504,-0.186622 0.33504,-0.561337 0,-0.373246 -0.130783,-0.55546 -0.33504,-0.55546 -0.205725,0 -0.336508,0.180745 -0.336508,0.55546 0,0.374715 0.130783,0.561337 0.336508,0.561337 z m 0,-0.107271 c -0.123435,0 -0.205725,-0.136661 -0.205725,-0.454066 0,-0.314467 0.08229,-0.448189 0.205725,-0.448189 0.121966,0 0.204257,0.133722 0.204257,0.448189 0,0.317405 -0.08229,0.454066 -0.204257,0.454066 z"
       id="path263"
       style="font-size:1.46947px;line-height:1.25;fill:#1fb200;fill-opacity:1;stroke-width:0.110209" />
    <path
       d="m 54.461587,18.487839 h 0.590727 V 18.37616 h -0.216012 v -0.966912 h -0.102863 c -0.05878,0.03527 -0.127844,0.06025 -0.22336,0.07788 v 0.08523 h 0.191031 v 0.803801 h -0.239523 z"
       id="path260"
       style="font-size:1.46947px;line-height:1.25;fill:#1fb200;fill-opacity:1;stroke-width:0.110209" />
    <path
       d="m 55.556339,18.506942 c 0.204257,0 0.33504,-0.186622 0.33504,-0.561337 0,-0.373246 -0.130783,-0.55546 -0.33504,-0.55546 -0.205725,0 -0.336508,0.180745 -0.336508,0.55546 0,0.374715 0.130783,0.561337 0.336508,0.561337 z m 0,-0.107271 c -0.123435,0 -0.205725,-0.136661 -0.205725,-0.454066 0,-0.314467 0.08229,-0.448189 0.205725,-0.448189 0.121966,0 0.204257,0.133722 0.204257,0.448189 0,0.317405 -0.08229,0.454066 -0.204257,0.454066 z"
       id="path257"
       style="font-size:1.46947px;line-height:1.25;fill:#1fb200;fill-opacity:1;stroke-width:0.110209" />
    <path
       d="m 56.371893,18.506942 c 0.204256,0 0.335039,-0.186622 0.335039,-0.561337 0,-0.373246 -0.130783,-0.55546 -0.335039,-0.55546 -0.205726,0 -0.336509,0.180745 -0.336509,0.55546 0,0.374715 0.130783,0.561337 0.336509,0.561337 z m 0,-0.107271 c -0.123435,0 -0.205726,-0.136661 -0.205726,-0.454066 0,-0.314467 0.08229,-0.448189 0.205726,-0.448189 0.121966,0 0.204256,0.133722 0.204256,0.448189 0,0.317405 -0.08229,0.454066 -0.204256,0.454066 z"
       id="path254"
       style="font-size:1.46947px;line-height:1.25;fill:#1fb200;fill-opacity:1;stroke-width:0.110209" />
    <path
       d="m 56.908247,18.487839 h 0.590727 V 18.37616 h -0.216012 v -0.966912 h -0.102863 c -0.05878,0.03527 -0.127844,0.06025 -0.223359,0.07788 v 0.08523 h 0.191031 v 0.803801 h -0.239524 z"
       id="path251"
       style="font-size:1.46947px;line-height:1.25;fill:#1fb200;fill-opacity:1;stroke-width:0.110209" />
    <path
       d="m 58.003,18.506942 c 0.204256,0 0.335039,-0.186622 0.335039,-0.561337 0,-0.373246 -0.130783,-0.55546 -0.335039,-0.55546 -0.205726,0 -0.336509,0.180745 -0.336509,0.55546 0,0.374715 0.130783,0.561337 0.336509,0.561337 z m 0,-0.107271 c -0.123436,0 -0.205726,-0.136661 -0.205726,-0.454066 0,-0.314467 0.08229,-0.448189 0.205726,-0.448189 0.121966,0 0.204256,0.133722 0.204256,0.448189 0,0.317405 -0.08229,0.454066 -0.204256,0.454066 z"
       id="path248"
       style="font-size:1.46947px;line-height:1.25;fill:#1fb200;fill-opacity:1;stroke-width:0.110209" />
    <path
       d="m 58.539354,18.487839 h 0.590727 V 18.37616 h -0.216012 v -0.966912 h -0.102863 c -0.05878,0.03527 -0.127844,0.06025 -0.223359,0.07788 v 0.08523 h 0.191031 v 0.803801 h -0.239524 z"
       id="path245"
       style="font-size:1.46947px;line-height:1.25;fill:#1fb200;fill-opacity:1;stroke-width:0.110209" />
    <path
       d="m 59.634107,18.506942 c 0.204256,0 0.335039,-0.186622 0.335039,-0.561337 0,-0.373246 -0.130783,-0.55546 -0.335039,-0.55546 -0.205726,0 -0.336509,0.180745 -0.336509,0.55546 0,0.374715 0.130783,0.561337 0.336509,0.561337 z m 0,-0.107271 c -0.123436,0 -0.205726,-0.136661 -0.205726,-0.454066 0,-0.314467 0.08229,-0.448189 0.205726,-0.448189 0.121966,0 0.204256,0.133722 0.204256,0.448189 0,0.317405 -0.08229,0.454066 -0.204256,0.454066 z"
       id="path242"
       style="font-size:1.46947px;line-height:1.25;fill:#1fb200;fill-opacity:1;stroke-width:0.110209" />
    <path
       d="m 60.44966,18.506942 c 0.204257,0 0.33504,-0.186622 0.33504,-0.561337 0,-0.373246 -0.130783,-0.55546 -0.33504,-0.55546 -0.205725,0 -0.336508,0.180745 -0.336508,0.55546 0,0.374715 0.130783,0.561337 0.336508,0.561337 z m 0,-0.107271 c -0.123435,0 -0.205725,-0.136661 -0.205725,-0.454066 0,-0.314467 0.08229,-0.448189 0.205725,-0.448189 0.121966,0 0.204257,0.133722 0.204257,0.448189 0,0.317405 -0.08229,0.454066 -0.204257,0.454066 z"
       id="path239"
       style="font-size:1.46947px;line-height:1.25;fill:#1fb200;fill-opacity:1;stroke-width:0.110209" />
    <path
       d="m 60.986015,18.487839 h 0.590727 V 18.37616 H 61.36073 v -0.966912 h -0.102863 c -0.05878,0.03527 -0.127844,0.06025 -0.22336,0.07788 v 0.08523 h 0.191031 v 0.803801 h -0.239523 z"
       id="path236"
       style="font-size:1.46947px;line-height:1.25;fill:#1fb200;fill-opacity:1;stroke-width:0.110209" />
    <path
       d="m 62.080767,18.506942 c 0.204257,0 0.335039,-0.186622 0.335039,-0.561337 0,-0.373246 -0.130782,-0.55546 -0.335039,-0.55546 -0.205726,0 -0.336508,0.180745 -0.336508,0.55546 0,0.374715 0.130782,0.561337 0.336508,0.561337 z m 0,-0.107271 c -0.123435,0 -0.205726,-0.136661 -0.205726,-0.454066 0,-0.314467 0.08229,-0.448189 0.205726,-0.448189 0.121966,0 0.204257,0.133722 0.204257,0.448189 0,0.317405 -0.08229,0.454066 -0.204257,0.454066 z"
       id="path233"
       style="font-size:1.46947px;line-height:1.25;fill:#1fb200;fill-opacity:1;stroke-width:0.110209" />
    <path
       d="m 62.896321,18.506942 c 0.204256,0 0.335039,-0.186622 0.335039,-0.561337 0,-0.373246 -0.130783,-0.55546 -0.335039,-0.55546 -0.205726,0 -0.336509,0.180745 -0.336509,0.55546 0,0.374715 0.130783,0.561337 0.336509,0.561337 z m 0,-0.107271 c -0.123436,0 -0.205726,-0.136661 -0.205726,-0.454066 0,-0.314467 0.08229,-0.448189 0.205726,-0.448189 0.121966,0 0.204256,0.133722 0.204256,0.448189 0,0.317405 -0.08229,0.454066 -0.204256,0.454066 z"
       id="path230"
       style="font-size:1.46947px;line-height:1.25;fill:#1fb200;fill-opacity:1;stroke-width:0.110209" />
    <path
       d="m 63.711875,18.506942 c 0.204256,0 0.335039,-0.186622 0.335039,-0.561337 0,-0.373246 -0.130783,-0.55546 -0.335039,-0.55546 -0.205726,0 -0.336509,0.180745 -0.336509,0.55546 0,0.374715 0.130783,0.561337 0.336509,0.561337 z m 0,-0.107271 c -0.123436,0 -0.205726,-0.136661 -0.205726,-0.454066 0,-0.314467 0.08229,-0.448189 0.205726,-0.448189 0.121966,0 0.204256,0.133722 0.204256,0.448189 0,0.317405 -0.08229,0.454066 -0.204256,0.454066 z"
       id="path227"
       style="font-size:1.46947px;line-height:1.25;fill:#1fb200;fill-opacity:1;stroke-width:0.110209" />
    <path
       d="m 64.527428,18.506942 c 0.204257,0 0.335039,-0.186622 0.335039,-0.561337 0,-0.373246 -0.130782,-0.55546 -0.335039,-0.55546 -0.205726,0 -0.336508,0.180745 -0.336508,0.55546 0,0.374715 0.130782,0.561337 0.336508,0.561337 z m 0,-0.107271 c -0.123435,0 -0.205726,-0.136661 -0.205726,-0.454066 0,-0.314467 0.08229,-0.448189 0.205726,-0.448189 0.121966,0 0.204257,0.133722 0.204257,0.448189 0,0.317405 -0.08229,0.454066 -0.204257,0.454066 z"
       id="path224"
       style="font-size:1.46947px;line-height:1.25;fill:#1fb200;fill-opacity:1;stroke-width:0.110209" />
    <path
       d="m 53.646033,20.324677 h 0.590727 v -0.11168 h -0.216012 v -0.966911 h -0.102863 c -0.05878,0.03527 -0.127844,0.06025 -0.223359,0.07788 v 0.08523 h 0.191031 v 0.8038 h -0.239524 z"
       id="path221"
       style="font-size:1.46947px;line-height:1.25;fill:#1fb200;fill-opacity:1;stroke-width:0.110209" />
    <path
       d="m 54.740786,20.34378 c 0.204256,0 0.335039,-0.186623 0.335039,-0.561338 0,-0.373245 -0.130783,-0.555459 -0.335039,-0.555459 -0.205726,0 -0.336509,0.180744 -0.336509,0.555459 0,0.374715 0.130783,0.561338 0.336509,0.561338 z m 0,-0.107271 c -0.123436,0 -0.205726,-0.136661 -0.205726,-0.454067 0,-0.314466 0.08229,-0.448188 0.205726,-0.448188 0.121966,0 0.204256,0.133722 0.204256,0.448188 0,0.317406 -0.08229,0.454067 -0.204256,0.454067 z"
       id="path218"
       style="font-size:1.46947px;line-height:1.25;fill:#1fb200;fill-opacity:1;stroke-width:0.110209" />
    <path
       d="m 55.27714,20.324677 h 0.590727 v -0.11168 h -0.216012 v -0.966911 h -0.102863 c -0.05878,0.03527 -0.127844,0.06025 -0.223359,0.07788 v 0.08523 h 0.191031 v 0.8038 H 55.27714 Z"
       id="path215"
       style="font-size:1.46947px;line-height:1.25;fill:#1fb200;fill-opacity:1;stroke-width:0.110209" />
    <path
       d="m 56.371893,20.34378 c 0.204256,0 0.335039,-0.186623 0.335039,-0.561338 0,-0.373245 -0.130783,-0.555459 -0.335039,-0.555459 -0.205726,0 -0.336509,0.180744 -0.336509,0.555459 0,0.374715 0.130783,0.561338 0.336509,0.561338 z m 0,-0.107271 c -0.123435,0 -0.205726,-0.136661 -0.205726,-0.454067 0,-0.314466 0.08229,-0.448188 0.205726,-0.448188 0.121966,0 0.204256,0.133722 0.204256,0.448188 0,0.317406 -0.08229,0.454067 -0.204256,0.454067 z"
       id="path212"
       style="font-size:1.46947px;line-height:1.25;fill:#1fb200;fill-opacity:1;stroke-width:0.110209" />
    <path
       d="m 57.187446,20.34378 c 0.204257,0 0.33504,-0.186623 0.33504,-0.561338 0,-0.373245 -0.130783,-0.555459 -0.33504,-0.555459 -0.205725,0 -0.336508,0.180744 -0.336508,0.555459 0,0.374715 0.130783,0.561338 0.336508,0.561338 z m 0,-0.107271 c -0.123435,0 -0.205725,-0.136661 -0.205725,-0.454067 0,-0.314466 0.08229,-0.448188 0.205725,-0.448188 0.121966,0 0.204257,0.133722 0.204257,0.448188 0,0.317406 -0.08229,0.454067 -0.204257,0.454067 z"
       id="path209"
       style="font-size:1.46947px;line-height:1.25;fill:#1fb200;fill-opacity:1;stroke-width:0.110209" />
    <path
       d="m 57.723801,20.324677 h 0.590727 v -0.11168 h -0.216013 v -0.966911 h -0.102862 c -0.05878,0.03527 -0.127844,0.06025 -0.22336,0.07788 v 0.08523 h 0.191031 v 0.8038 h -0.239523 z"
       id="path206"
       style="font-size:1.46947px;line-height:1.25;fill:#1fb200;fill-opacity:1;stroke-width:0.110209" />
    <path
       d="m 58.818554,20.34378 c 0.204256,0 0.335039,-0.186623 0.335039,-0.561338 0,-0.373245 -0.130783,-0.555459 -0.335039,-0.555459 -0.205726,0 -0.336509,0.180744 -0.336509,0.555459 0,0.374715 0.130783,0.561338 0.336509,0.561338 z m 0,-0.107271 c -0.123436,0 -0.205726,-0.136661 -0.205726,-0.454067 0,-0.314466 0.08229,-0.448188 0.205726,-0.448188 0.121966,0 0.204256,0.133722 0.204256,0.448188 0,0.317406 -0.08229,0.454067 -0.204256,0.454067 z"
       id="path203"
       style="font-size:1.46947px;line-height:1.25;fill:#1fb200;fill-opacity:1;stroke-width:0.110209" />
    <path
       d="m 59.354907,20.324677 h 0.590727 v -0.11168 h -0.216012 v -0.966911 h -0.102863 c -0.05878,0.03527 -0.127844,0.06025 -0.223359,0.07788 v 0.08523 h 0.191031 v 0.8038 h -0.239524 z"
       id="path200"
       style="font-size:1.46947px;line-height:1.25;fill:#1fb200;fill-opacity:1;stroke-width:0.110209" />
    <path
       d="m 60.44966,20.34378 c 0.204257,0 0.33504,-0.186623 0.33504,-0.561338 0,-0.373245 -0.130783,-0.555459 -0.33504,-0.555459 -0.205725,0 -0.336508,0.180744 -0.336508,0.555459 0,0.374715 0.130783,0.561338 0.336508,0.561338 z m 0,-0.107271 c -0.123435,0 -0.205725,-0.136661 -0.205725,-0.454067 0,-0.314466 0.08229,-0.448188 0.205725,-0.448188 0.121966,0 0.204257,0.133722 0.204257,0.448188 0,0.317406 -0.08229,0.454067 -0.204257,0.454067 z"
       id="path197"
       style="font-size:1.46947px;line-height:1.25;fill:#1fb200;fill-opacity:1;stroke-width:0.110209" />
    <path
       d="m 61.265214,20.34378 c 0.204256,0 0.335039,-0.186623 0.335039,-0.561338 0,-0.373245 -0.130783,-0.555459 -0.335039,-0.555459 -0.205726,0 -0.336509,0.180744 -0.336509,0.555459 0,0.374715 0.130783,0.561338 0.336509,0.561338 z m 0,-0.107271 c -0.123435,0 -0.205726,-0.136661 -0.205726,-0.454067 0,-0.314466 0.08229,-0.448188 0.205726,-0.448188 0.121966,0 0.204256,0.133722 0.204256,0.448188 0,0.317406 -0.08229,0.454067 -0.204256,0.454067 z"
       id="path194"
       style="font-size:1.46947px;line-height:1.25;fill:#1fb200;fill-opacity:1;stroke-width:0.110209" />
    <path
       d="m 61.801568,20.324677 h 0.590727 v -0.11168 H 62.176283 V 19.246086 H 62.07342 c -0.05878,0.03527 -0.127844,0.06025 -0.22336,0.07788 v 0.08523 h 0.191032 v 0.8038 h -0.239524 z"
       id="path191"
       style="font-size:1.46947px;line-height:1.25;fill:#1fb200;fill-opacity:1;stroke-width:0.110209" />
    <path
       d="m 62.896321,20.34378 c 0.204256,0 0.335039,-0.186623 0.335039,-0.561338 0,-0.373245 -0.130783,-0.555459 -0.335039,-0.555459 -0.205726,0 -0.336509,0.180744 -0.336509,0.555459 0,0.374715 0.130783,0.561338 0.336509,0.561338 z m 0,-0.107271 c -0.123436,0 -0.205726,-0.136661 -0.205726,-0.454067 0,-0.314466 0.08229,-0.448188 0.205726,-0.448188 0.121966,0 0.204256,0.133722 0.204256,0.448188 0,0.317406 -0.08229,0.454067 -0.204256,0.454067 z"
       id="path188"
       style="font-size:1.46947px;line-height:1.25;fill:#1fb200;fill-opacity:1;stroke-width:0.110209" />
    <path
       d="m 63.711875,20.34378 c 0.204256,0 0.335039,-0.186623 0.335039,-0.561338 0,-0.373245 -0.130783,-0.555459 -0.335039,-0.555459 -0.205726,0 -0.336509,0.180744 -0.336509,0.555459 0,0.374715 0.130783,0.561338 0.336509,0.561338 z m 0,-0.107271 c -0.123436,0 -0.205726,-0.136661 -0.205726,-0.454067 0,-0.314466 0.08229,-0.448188 0.205726,-0.448188 0.121966,0 0.204256,0.133722 0.204256,0.448188 0,0.317406 -0.08229,0.454067 -0.204256,0.454067 z"
       id="path185"
       style="font-size:1.46947px;line-height:1.25;fill:#1fb200;fill-opacity:1;stroke-width:0.110209" />
    <path
       d="m 64.248229,20.324677 h 0.590727 v -0.11168 h -0.216012 v -0.966911 h -0.102863 c -0.05878,0.03527 -0.127844,0.06025 -0.22336,0.07788 v 0.08523 h 0.191032 v 0.8038 h -0.239524 z"
       id="path182"
       style="font-size:1.46947px;line-height:1.25;fill:#1fb200;fill-opacity:1;stroke-width:0.110209" />
  </g>
</svg>
